<svg xmlns="http://www.w3.org/2000/svg" viewBox="0 0 440 340" width="440" height="340">
  <defs>
    <linearGradient id="t2bGold" x1="0%" y1="0%" x2="100%" y2="100%">
      <stop offset="0%" stop-color="#FEF3C7"/>
      <stop offset="30%" stop-color="#FBBF24"/>
      <stop offset="70%" stop-color="#D97706"/>
      <stop offset="100%" stop-color="#92400E"/>
    </linearGradient>
    <linearGradient id="t2bBark" x1="0%" y1="100%" x2="0%" y2="0%">
      <stop offset="0%" stop-color="#374151"/>
      <stop offset="60%" stop-color="#6B7280"/>
      <stop offset="100%" stop-color="#9CA3AF"/>
    </linearGradient>
    <filter id="leafGlow2b" x="-100%" y="-100%" width="300%" height="300%">
      <feGaussianBlur in="SourceGraphic" stdDeviation="4.5" result="blur"/>
      <feColorMatrix in="blur" type="matrix" values="1 0.7 0 0 0  0 0.5 0 0 0  0 0 0 0 0  0 0 0 0.55 0"/>
    </filter>
    <radialGradient id="leafRad2b" cx="40%" cy="35%" r="60%">
      <stop offset="0%" stop-color="#FFFBEB"/>
      <stop offset="40%" stop-color="#FCD34D"/>
      <stop offset="100%" stop-color="#D97706"/>
    </radialGradient>
    <linearGradient id="bg2b" x1="0%" y1="0%" x2="0%" y2="100%">
      <stop offset="0%" stop-color="#111827"/>
      <stop offset="100%" stop-color="#0c1018"/>
    </linearGradient>
  </defs>

  <rect width="440" height="340" fill="url(#bg2b)" rx="24"/>

  <!-- Ground shadow -->
  <ellipse cx="205" cy="248" rx="55" ry="4" fill="#1a1f28" opacity="0.5"/>

  <!-- Trunk - organic curve, slightly leaning -->
  <path d="M200,245 C198,220 195,190 196,165 C197,140 200,118 205,95" stroke="url(#t2bBark)" stroke-width="5" fill="none" stroke-linecap="round"/>

  <!-- Roots - asymmetric -->
  <path d="M200,245 C185,252 165,258 148,262" stroke="#374151" stroke-width="2.2" fill="none" stroke-linecap="round" opacity="0.4"/>
  <path d="M200,245 C200,255 202,262 205,270" stroke="#374151" stroke-width="2" fill="none" stroke-linecap="round" opacity="0.35"/>
  <path d="M200,245 C215,252 228,255 238,256" stroke="#374151" stroke-width="1.6" fill="none" stroke-linecap="round" opacity="0.3"/>

  <!-- Commit nodes on trunk -->
  <circle cx="199" cy="215" r="3" fill="#4B5563" stroke="#6B7280" stroke-width="0.8"/>
  <circle cx="197" cy="185" r="3" fill="#4B5563" stroke="#6B7280" stroke-width="0.8"/>
  <circle cx="197" cy="155" r="3" fill="#4B5563" stroke="#6B7280" stroke-width="0.8"/>
  <circle cx="200" cy="125" r="3" fill="#4B5563" stroke="#6B7280" stroke-width="0.8"/>

  <!-- LEFT side - FULLER, more branches -->
  <path d="M199,215 C178,208 155,200 132,188" stroke="#6B7280" stroke-width="2.5" fill="none" stroke-linecap="round"/>
  <path d="M132,188 C122,182 112,175 102,168" stroke="#6B7280" stroke-width="1.6" fill="none" stroke-linecap="round"/>
  <path d="M132,188 C128,178 124,165 120,155" stroke="#6B7280" stroke-width="1.5" fill="none" stroke-linecap="round"/>

  <path d="M197,185 C178,172 160,158 148,140" stroke="#6B7280" stroke-width="2.2" fill="none" stroke-linecap="round"/>
  <path d="M148,140 C140,128 132,118 125,110" stroke="#6B7280" stroke-width="1.5" fill="none" stroke-linecap="round"/>
  <path d="M148,140 C142,132 135,128 128,125" stroke="#6B7280" stroke-width="1.2" fill="none" stroke-linecap="round"/>

  <path d="M197,155 C178,142 162,125 150,108" stroke="#6B7280" stroke-width="2" fill="none" stroke-linecap="round"/>
  <path d="M150,108 C142,95 135,85 130,78" stroke="#6B7280" stroke-width="1.5" fill="none" stroke-linecap="round"/>
  <path d="M150,108 C152,95 155,85 158,72" stroke="#6B7280" stroke-width="1.2" fill="none" stroke-linecap="round"/>

  <!-- RIGHT side - sparser, one bold reaching branch -->
  <path d="M199,215 C220,205 242,192 258,180" stroke="#6B7280" stroke-width="2" fill="none" stroke-linecap="round"/>
  <path d="M200,125 C222,115 248,100 270,85" stroke="#6B7280" stroke-width="2.8" fill="none" stroke-linecap="round"/>
  <path d="M270,85 C282,76 292,68 300,60" stroke="#6B7280" stroke-width="1.8" fill="none" stroke-linecap="round"/>

  <!-- Top branches -->
  <path d="M205,95 C202,78 198,62 192,48" stroke="#6B7280" stroke-width="1.8" fill="none" stroke-linecap="round"/>
  <path d="M205,95 C212,78 218,65 225,55" stroke="#6B7280" stroke-width="1.8" fill="none" stroke-linecap="round"/>

  <!-- Circuit junction nodes -->
  <circle cx="132" cy="188" r="3" fill="#4B5563" stroke="#9CA3AF" stroke-width="0.8"/>
  <circle cx="148" cy="140" r="3" fill="#4B5563" stroke="#9CA3AF" stroke-width="0.8"/>
  <circle cx="150" cy="108" r="3" fill="#4B5563" stroke="#9CA3AF" stroke-width="0.8"/>
  <circle cx="270" cy="85" r="3" fill="#4B5563" stroke="#9CA3AF" stroke-width="0.8"/>

  <!-- Golden leaves with glow -->
  <circle cx="102" cy="168" r="11" fill="#D97706" opacity="0.07" filter="url(#leafGlow2b)"/>
  <circle cx="102" cy="168" r="5.5" fill="url(#leafRad2b)"/>

  <circle cx="120" cy="155" r="9" fill="#D97706" opacity="0.06" filter="url(#leafGlow2b)"/>
  <circle cx="120" cy="155" r="4.5" fill="url(#leafRad2b)" opacity="0.85"/>

  <circle cx="125" cy="110" r="11" fill="#D97706" opacity="0.07" filter="url(#leafGlow2b)"/>
  <circle cx="125" cy="110" r="5.5" fill="url(#leafRad2b)"/>

  <circle cx="128" cy="125" r="8" fill="#D97706" opacity="0.05" filter="url(#leafGlow2b)"/>
  <circle cx="128" cy="125" r="3.5" fill="url(#leafRad2b)" opacity="0.75"/>

  <circle cx="130" cy="78" r="10" fill="#D97706" opacity="0.07" filter="url(#leafGlow2b)"/>
  <circle cx="130" cy="78" r="5" fill="url(#leafRad2b)"/>

  <circle cx="158" cy="72" r="8" fill="#D97706" opacity="0.05" filter="url(#leafGlow2b)"/>
  <circle cx="158" cy="72" r="3.5" fill="url(#leafRad2b)" opacity="0.7"/>

  <circle cx="258" cy="180" r="9" fill="#D97706" opacity="0.06" filter="url(#leafGlow2b)"/>
  <circle cx="258" cy="180" r="4.5" fill="url(#leafRad2b)" opacity="0.8"/>

  <circle cx="300" cy="60" r="12" fill="#D97706" opacity="0.08" filter="url(#leafGlow2b)"/>
  <circle cx="300" cy="60" r="6" fill="url(#leafRad2b)"/>

  <circle cx="192" cy="48" r="10" fill="#D97706" opacity="0.07" filter="url(#leafGlow2b)"/>
  <circle cx="192" cy="48" r="5" fill="url(#leafRad2b)"/>

  <circle cx="225" cy="55" r="10" fill="#D97706" opacity="0.07" filter="url(#leafGlow2b)"/>
  <circle cx="225" cy="55" r="5" fill="url(#leafRad2b)"/>

  <!-- LORE text -->
  <text x="220" y="305" font-family="'Palatino Linotype', Palatino, Georgia, serif" font-size="28" font-weight="bold" fill="#d1d5db" text-anchor="middle" letter-spacing="14">LORE</text>
</svg>