<svg xmlns="http://www.w3.org/2000/svg" viewBox="0 0 1280 640" width="1280" height="640">
  <defs>
    <linearGradient id="scBg" x1="0%" y1="0%" x2="0%" y2="100%">
      <stop offset="0%" stop-color="#111827"/>
      <stop offset="100%" stop-color="#0a0e14"/>
    </linearGradient>
    <linearGradient id="scGold" x1="0%" y1="0%" x2="100%" y2="100%">
      <stop offset="0%" stop-color="#FEF3C7"/>
      <stop offset="30%" stop-color="#FBBF24"/>
      <stop offset="70%" stop-color="#D97706"/>
      <stop offset="100%" stop-color="#92400E"/>
    </linearGradient>
    <linearGradient id="scBark" x1="0%" y1="100%" x2="0%" y2="0%">
      <stop offset="0%" stop-color="#374151"/>
      <stop offset="60%" stop-color="#6B7280"/>
      <stop offset="100%" stop-color="#9CA3AF"/>
    </linearGradient>
    <filter id="scLeafGlow" x="-100%" y="-100%" width="300%" height="300%">
      <feGaussianBlur in="SourceGraphic" stdDeviation="6" result="blur"/>
      <feColorMatrix in="blur" type="matrix" values="1 0.7 0 0 0  0 0.5 0 0 0  0 0 0 0 0  0 0 0 0.5 0"/>
    </filter>
    <radialGradient id="scLeaf" cx="40%" cy="35%" r="60%">
      <stop offset="0%" stop-color="#FFFBEB"/>
      <stop offset="40%" stop-color="#FCD34D"/>
      <stop offset="100%" stop-color="#D97706"/>
    </radialGradient>
  </defs>

  <!-- Background -->
  <rect width="1280" height="640" fill="url(#scBg)"/>

  <!-- ===== Tree logo (scaled up, positioned left) ===== -->
  <g transform="translate(40, 80) scale(1.4)">
    <path d="M200,245 C198,220 195,190 196,165 C197,140 200,118 205,95" stroke="url(#scBark)" stroke-width="5" fill="none" stroke-linecap="round"/>
    <path d="M200,245 C185,252 165,258 148,262" stroke="#374151" stroke-width="2.2" fill="none" stroke-linecap="round" opacity="0.4"/>
    <path d="M200,245 C200,255 202,262 205,270" stroke="#374151" stroke-width="2" fill="none" stroke-linecap="round" opacity="0.35"/>
    <path d="M200,245 C215,252 228,255 238,256" stroke="#374151" stroke-width="1.6" fill="none" stroke-linecap="round" opacity="0.3"/>
    <circle cx="199" cy="215" r="3" fill="#4B5563" stroke="#6B7280" stroke-width="0.8"/>
    <circle cx="197" cy="185" r="3" fill="#4B5563" stroke="#6B7280" stroke-width="0.8"/>
    <circle cx="197" cy="155" r="3" fill="#4B5563" stroke="#6B7280" stroke-width="0.8"/>
    <circle cx="200" cy="125" r="3" fill="#4B5563" stroke="#6B7280" stroke-width="0.8"/>
    <path d="M199,215 C178,208 155,200 132,188" stroke="#6B7280" stroke-width="2.5" fill="none" stroke-linecap="round"/>
    <path d="M132,188 C122,182 112,175 102,168" stroke="#6B7280" stroke-width="1.6" fill="none" stroke-linecap="round"/>
    <path d="M132,188 C128,178 124,165 120,155" stroke="#6B7280" stroke-width="1.5" fill="none" stroke-linecap="round"/>
    <path d="M197,185 C178,172 160,158 148,140" stroke="#6B7280" stroke-width="2.2" fill="none" stroke-linecap="round"/>
    <path d="M148,140 C140,128 132,118 125,110" stroke="#6B7280" stroke-width="1.5" fill="none" stroke-linecap="round"/>
    <path d="M197,155 C178,142 162,125 150,108" stroke="#6B7280" stroke-width="2" fill="none" stroke-linecap="round"/>
    <path d="M150,108 C142,95 135,85 130,78" stroke="#6B7280" stroke-width="1.5" fill="none" stroke-linecap="round"/>
    <path d="M150,108 C152,95 155,85 158,72" stroke="#6B7280" stroke-width="1.2" fill="none" stroke-linecap="round"/>
    <path d="M199,215 C220,205 242,192 258,180" stroke="#6B7280" stroke-width="2" fill="none" stroke-linecap="round"/>
    <path d="M200,125 C222,115 248,100 270,85" stroke="#6B7280" stroke-width="2.8" fill="none" stroke-linecap="round"/>
    <path d="M270,85 C282,76 292,68 300,60" stroke="#6B7280" stroke-width="1.8" fill="none" stroke-linecap="round"/>
    <path d="M205,95 C202,78 198,62 192,48" stroke="#6B7280" stroke-width="1.8" fill="none" stroke-linecap="round"/>
    <path d="M205,95 C212,78 218,65 225,55" stroke="#6B7280" stroke-width="1.8" fill="none" stroke-linecap="round"/>
    <circle cx="132" cy="188" r="3" fill="#4B5563" stroke="#9CA3AF" stroke-width="0.8"/>
    <circle cx="148" cy="140" r="3" fill="#4B5563" stroke="#9CA3AF" stroke-width="0.8"/>
    <circle cx="150" cy="108" r="3" fill="#4B5563" stroke="#9CA3AF" stroke-width="0.8"/>
    <circle cx="270" cy="85" r="3" fill="#4B5563" stroke="#9CA3AF" stroke-width="0.8"/>
    <circle cx="102" cy="168" r="11" fill="#D97706" opacity="0.07" filter="url(#scLeafGlow)"/>
    <circle cx="102" cy="168" r="5.5" fill="url(#scLeaf)"/>
    <circle cx="120" cy="155" r="9" fill="#D97706" opacity="0.06" filter="url(#scLeafGlow)"/>
    <circle cx="120" cy="155" r="4.5" fill="url(#scLeaf)" opacity="0.85"/>
    <circle cx="125" cy="110" r="11" fill="#D97706" opacity="0.07" filter="url(#scLeafGlow)"/>
    <circle cx="125" cy="110" r="5.5" fill="url(#scLeaf)"/>
    <circle cx="130" cy="78" r="10" fill="#D97706" opacity="0.07" filter="url(#scLeafGlow)"/>
    <circle cx="130" cy="78" r="5" fill="url(#scLeaf)"/>
    <circle cx="158" cy="72" r="8" fill="#D97706" opacity="0.05" filter="url(#scLeafGlow)"/>
    <circle cx="158" cy="72" r="3.5" fill="url(#scLeaf)" opacity="0.7"/>
    <circle cx="258" cy="180" r="9" fill="#D97706" opacity="0.06" filter="url(#scLeafGlow)"/>
    <circle cx="258" cy="180" r="4.5" fill="url(#scLeaf)" opacity="0.8"/>
    <circle cx="300" cy="60" r="12" fill="#D97706" opacity="0.08" filter="url(#scLeafGlow)"/>
    <circle cx="300" cy="60" r="6" fill="url(#scLeaf)"/>
    <circle cx="192" cy="48" r="10" fill="#D97706" opacity="0.07" filter="url(#scLeafGlow)"/>
    <circle cx="192" cy="48" r="5" fill="url(#scLeaf)"/>
    <circle cx="225" cy="55" r="10" fill="#D97706" opacity="0.07" filter="url(#scLeafGlow)"/>
    <circle cx="225" cy="55" r="5" fill="url(#scLeaf)"/>
  </g>

  <!-- ===== Text content (right side) ===== -->
  <!-- Title -->
  <text x="700" y="200" font-family="'Palatino Linotype', Palatino, Georgia, serif" font-size="96" font-weight="bold" fill="#e5e7eb">Lore</text>

  <!-- Tagline -->
  <text x="700" y="265" font-family="'Helvetica Neue', Helvetica, Arial, sans-serif" font-size="30" fill="#9CA3AF" font-weight="300">Your code knows what. Lore knows why.</text>

  <!-- French tagline -->
  <text x="700" y="310" font-family="'Palatino Linotype', Georgia, serif" font-size="22" fill="#D97706" font-style="italic" opacity="0.7">L'or de vos decisions techniques.</text>

  <!-- Terminal snippet -->
  <rect x="680" y="350" width="540" height="220" fill="#1a1f28" rx="12"/>
  <!-- Terminal dots -->
  <circle cx="710" cy="375" r="5" fill="#ff5f57"/>
  <circle cx="728" cy="375" r="5" fill="#febc2e"/>
  <circle cx="746" cy="375" r="5" fill="#28c840"/>

  <!-- Terminal content -->
  <text x="710" y="415" font-family="'Menlo', 'Courier New', monospace" font-size="17" fill="#D97706">$ git commit -m "feat: add JWT auth"</text>
  <text x="710" y="445" font-family="'Menlo', 'Courier New', monospace" font-size="16" fill="#9CA3AF">  [1/3] Type [feature]:</text>
  <text x="710" y="470" font-family="'Menlo', 'Courier New', monospace" font-size="16" fill="#9CA3AF">  [2/3] What [add JWT auth]:</text>
  <text x="710" y="495" font-family="'Menlo', 'Courier New', monospace" font-size="16" fill="#9CA3AF">  [3/3] Why?</text>
  <text x="710" y="520" font-family="'Menlo', 'Courier New', monospace" font-size="16" fill="#e5e7eb">  Stateless auth scales better</text>
  <text x="710" y="548" font-family="'Menlo', 'Courier New', monospace" font-size="16" fill="#FBBF24">  Captured  decision-jwt-auth.md</text>
</svg>